{
  "accessors": [
    {
      "bufferView": 2,
      "componentType": 5126,
      "count": 4291,
      "max": [
        0.6377999782562256,
        0.4440999925136566,
        2.278700113296509
      ],
      "min": [
        -0.6377999782562256,
        -0.8921999931335449,
        -0.005100000184029341
      ],
      "type": "VEC3"
    },
    {
      "bufferView": 2,
      "byteOffset": 51492,
      "componentType": 5126,
      "count": 4291,
      "max": [
        1.0,
        0.9996643662452698,
        0.9999911785125732
      ],
      "min": [
        -1.0,
        -0.9999831914901733,
        -0.9999997615814209
      ],
      "type": "VEC3"
    },
    {
      "bufferView": 3,
      "componentType": 5126,
      "count": 4291,
      "max": [
        1.0,
        1.0,
        0.9999820590019226,
        1.0
      ],
      "min": [
        -1.0,
        -1.0,
        -0.9987984895706177,
        -1.0
      ],
      "type": "VEC4"
    },
    {
      "bufferView": 1,
      "componentType": 5126,
      "count": 4291,
      "max": [
        0.9990000128746033,
        0.9922999739646912
      ],
      "min": [
        0.0010000000474974513,
        0.0010000000474974513
      ],
      "type": "VEC2"
    },
    {
      "bufferView": 0,
      "componentType": 5125,
      "count": 17982,
      "type": "SCALAR"
    }
  ],
  "asset": {
    "extras": {
      "author": "emelyarules (https://sketchfab.com/emelyarules)",
      "license": "CC-BY-4.0 (http://creativecommons.org/licenses/by/4.0/)",
      "source": "https://sketchfab.com/3d-models/easel-cartoon-79e70a8ec7c54904a411eadfccefe775",
      "title": "Easel cartoon"
    },
    "generator": "Sketchfab-12.64.0",
    "version": "2.0"
  },
  "bufferViews": [
    {
      "buffer": 0,
      "byteLength": 71928,
      "name": "floatBufferViews",
      "target": 34963
    },
    {
      "buffer": 0,
      "byteLength": 34328,
      "byteOffset": 71928,
      "byteStride": 8,
      "name": "floatBufferViews",
      "target": 34962
    },
    {
      "buffer": 0,
      "byteLength": 102984,
      "byteOffset": 106256,
      "byteStride": 12,
      "name": "floatBufferViews",
      "target": 34962
    },
    {
      "buffer": 0,
      "byteLength": 68656,
      "byteOffset": 209240,
      "byteStride": 16,
      "name": "floatBufferViews",
      "target": 34962
    }
  ],
  "buffers": [
    {
      "byteLength": 277896,
      "uri": "scene.bin"
    }
  ],
  "images": [
    {
      "uri": "textures/map_Easel01_baseColor.png"
    },
    {
      "uri": "textures/map_Easel01_metallicRoughness.png"
    },
    {
      "uri": "textures/map_Easel01_normal.png"
    }
  ],
  "materials": [
    {
      "doubleSided": true,
      "name": "map_Easel01",
      "normalTexture": {
        "index": 2
      },
      "occlusionTexture": {
        "index": 1
      },
      "pbrMetallicRoughness": {
        "baseColorTexture": {
          "index": 0
        },
        "metallicRoughnessTexture": {
          "index": 1
        }
      }
    }
  ],
  "meshes": [
    {
      "name": "Object_0",
      "primitives": [
        {
          "attributes": {
            "NORMAL": 1,
            "POSITION": 0,
            "TANGENT": 2,
            "TEXCOORD_0": 3
          },
          "indices": 4,
          "material": 0,
          "mode": 4
        }
      ]
    }
  ],
  "nodes": [
    {
      "children": [
        1
      ],
      "matrix": [
        1.0,
        0.0,
        0.0,
        0.0,
        0.0,
        2.220446049250313e-16,
        -1.0,
        0.0,
        0.0,
        1.0,
        2.220446049250313e-16,
        0.0,
        0.0,
        0.0,
        0.0,
        1.0
      ],
      "name": "Sketchfab_model"
    },
    {
      "children": [
        2
      ],
      "name": "easel_01.obj.cleaner.materialmerger.gles"
    },
    {
      "mesh": 0,
      "name": "Object_2"
    }
  ],
  "samplers": [
    {
      "magFilter": 9729,
      "minFilter": 9987,
      "wrapS": 10497,
      "wrapT": 10497
    }
  ],
  "scene": 0,
  "scenes": [
    {
      "name": "Sketchfab_Scene",
      "nodes": [
        0
      ]
    }
  ],
  "textures": [
    {
      "sampler": 0,
      "source": 0
    },
    {
      "sampler": 0,
      "source": 1
    },
    {
      "sampler": 0,
      "source": 2
    }
  ]
}
